<?xml version="1.0" encoding="UTF-8" standalone="no"?>
<svg
   xmlns:dc="http://purl.org/dc/elements/1.1/"
   xmlns:cc="http://creativecommons.org/ns#"
   xmlns:rdf="http://www.w3.org/1999/02/22-rdf-syntax-ns#"
   xmlns:svg="http://www.w3.org/2000/svg"
   xmlns="http://www.w3.org/2000/svg"
   viewBox="0 0 1016.1867 439.97333"
   height="439.97333"
   width="1016.1867"
   xml:space="preserve"
   id="svg2"
   version="1.1"><metadata
     id="metadata8"><rdf:RDF><cc:Work
         rdf:about=""><dc:format>image/svg+xml</dc:format><dc:type
           rdf:resource="http://purl.org/dc/dcmitype/StillImage" /></cc:Work></rdf:RDF></metadata><defs
     id="defs6" /><g
     transform="matrix(1.3333333,0,0,-1.3333333,0,439.97333)"
     id="g10"><g
       transform="scale(0.1)"
       id="g12"><path
         id="path14"
         style="fill:#ffffff;fill-opacity:1;fill-rule:nonzero;stroke:none"
         d="m 1865.54,1581.8 h -248.88 l 125.05,390.18 z m 336.33,-401.33 -327.63,940.32 h -258.79 l -326.32,-940.32 h 201.27 l 75.02,232.6 h 353.9 l 76.24,-232.6 h 206.31" /><path
         id="path16"
         style="fill:#ffffff;fill-opacity:1;fill-rule:nonzero;stroke:none"
         d="M 314.84,1030.35 H 221.133 V 90.0313 H 408.551 V 560.199 1030.35 H 314.84" /><path
         id="path18"
         style="fill:#ffffff;fill-opacity:1;fill-rule:nonzero;stroke:none"
         d="M 667.391,771.488 H 488.566 V 90.0586 H 676.191 V 442.641 c 0,136.281 39.93,200.05 126.262,200.05 40.016,0 73.785,-18.793 92.496,-48.73 12.528,-22.52 16.278,-45.063 16.278,-103.801 V 90.0586 H 1098.75 V 476.41 c 0,121.301 -7.48,165.059 -34.99,208.852 -41.25,65 -111.307,101.187 -197.533,101.187 -83.801,0 -155.071,-36.187 -198.836,-99.98 v 85.019" /><path
         id="path20"
         style="fill:#ffffff;fill-opacity:1;fill-rule:nonzero;stroke:none"
         d="m 1741.46,553.93 c 1.21,148.8 -105.04,237.539 -287.6,237.539 -176.29,0 -288.81,-85.008 -288.81,-216.321 0,-49.949 21.22,-99.968 58.74,-133.75 42.55,-38.789 87.53,-56.289 212.58,-82.578 92.49,-19.922 126.26,-42.441 126.26,-85.011 0,-39.93 -41.25,-66.219 -103.72,-66.219 -78.83,0 -120.08,37.519 -118.79,110 h -191.35 c 2.53,-158.82 113.82,-247.5783 308.84,-247.5783 185.09,0 300.12,85.0273 300.12,221.2893 0,103.828 -61.25,166.379 -196.32,201.371 l -135.06,34.957 c -51.24,13.769 -73.78,32.562 -73.78,62.582 0,41.25 35.07,66.219 93.81,66.219 76.22,0 107.55,-28.719 111.28,-102.5 h 183.8" /><path
         id="path22"
         style="fill:#ffffff;fill-opacity:1;fill-rule:nonzero;stroke:none"
         d="M 2171.3,771.488 H 2061.31 V 936.551 H 1873.69 V 771.488 h -99.98 V 630.16 h 99.98 V 317.59 c 0,-90.059 7.5,-128.781 33.77,-167.488 C 1942.45,97.5391 1993.79,75 2077.49,75 c 38.81,0 58.82,2.5117 93.81,11.3086 V 226.32 c -22.54,-2.519 -30.02,-3.73 -38.72,-3.73 -51.34,0 -71.27,28.699 -71.27,102.5 v 305.07 h 109.99 v 141.328" /><path
         id="path24"
         style="fill:#ffffff;fill-opacity:1;fill-rule:nonzero;stroke:none"
         d="m 2339.33,1030.35 h -93.82 V 850.332 h 187.63 v 86.207 93.811 z m 0,-258.791 h -93.82 V 90.0313 h 187.63 V 438.25 771.559 h -93.81" /><path
         id="path26"
         style="fill:#ffffff;fill-opacity:1;fill-rule:nonzero;stroke:none"
         d="M 2895.86,771.488 H 2785.88 V 936.551 H 2598.25 V 771.488 h -99.97 V 630.16 h 99.97 V 317.59 c 0,-90.059 7.5,-128.781 33.77,-167.488 C 2667.01,97.5391 2718.36,75 2802.05,75 c 38.82,0 58.83,2.5117 93.81,11.3086 V 226.32 c -22.54,-2.519 -30.02,-3.73 -38.71,-3.73 -51.35,0 -71.27,28.699 -71.27,102.5 v 305.07 h 109.98 v 141.328" /><path
         id="path28"
         style="fill:#ffffff;fill-opacity:1;fill-rule:nonzero;stroke:none"
         d="m 3409.59,90.0313 h 178.83 V 771.461 H 3400.8 V 418.879 c 0,-73.809 -6.17,-111.309 -24.98,-141.328 -22.54,-37.5 -60.04,-58.719 -101.29,-58.719 -40.01,0 -73.78,17.469 -92.49,48.707 -12.53,22.543 -16.28,45.082 -16.28,103.82 V 771.461 H 2978.24 V 385.109 c 0,-121.3 7.48,-165.058 34.99,-208.847 41.25,-65.012 112.52,-101.1917 197.53,-101.1917 82.58,0 153.83,36.1797 198.83,99.9807 V 90.0313" /><path
         id="path30"
         style="fill:#ffffff;fill-opacity:1;fill-rule:nonzero;stroke:none"
         d="M 4049.63,771.488 H 3939.64 V 936.551 H 3752.02 V 771.488 h -99.98 V 630.16 h 99.98 V 317.59 c 0,-90.059 7.5,-128.781 33.77,-167.488 C 3820.77,97.5391 3872.12,75 3955.82,75 c 38.81,0 58.82,2.5117 93.81,11.3086 V 226.32 c -22.54,-2.519 -30.02,-3.73 -38.72,-3.73 -51.34,0 -71.27,28.699 -71.27,102.5 v 305.07 h 109.99 v 141.328" /><path
         id="path32"
         style="fill:#ffffff;fill-opacity:1;fill-rule:nonzero;stroke:none"
         d="m 4573.1,510.16 h -291.32 c 14.96,92.5 66.2,140.012 148.78,140.012 82.5,0 138.79,-56.211 142.54,-140.012 m 193.79,-91.269 c 0,228.847 -128.78,372.609 -335.11,372.609 -203.8,0 -341.36,-143.762 -341.36,-356.359 0,-222.59 135.04,-365.1097 347.62,-365.1097 168.83,0 285.08,80.0507 327.63,227.5587 h -198.83 c -20.03,-53.801 -62.58,-81.289 -125.05,-81.289 -95.03,0 -153.75,57.531 -158.8,157.59 h 482.68 c 1.22,20.019 1.22,37.519 1.22,45" /><path
         id="path34"
         style="fill:#ffffff;fill-opacity:1;fill-rule:nonzero;stroke:none"
         d="M 448.238,3211.45 H 44.9961 V 3046.37 H 350.09 v -355.1 -420.04 h 197.531 v 420.04 355.1 h 151.625 152.25 v 90.24 74.84 H 448.238" /><path
         id="path36"
         style="fill:#ffffff;fill-opacity:1;fill-rule:nonzero;stroke:none"
         d="m 903.402,2271.16 h 187.518 v 335.11 c 0,146.27 41.34,216.32 127.57,216.32 78.77,0 108.79,-43.78 108.79,-155.07 v -396.36 h 187.52 v 372.61 43.76 c 0,105.04 -14.98,158.82 -54.99,205.02 -40.04,46.29 -108.78,76.31 -176.32,76.31 -72.48,0 -143.75,-36.28 -192.57,-97.54 v 340.16 H 903.402 v -940.32" /><path
         id="path38"
         style="fill:#ffffff;fill-opacity:1;fill-rule:nonzero;stroke:none"
         d="m 2049.41,2691.28 h -291.32 c 14.96,92.49 66.2,140.01 148.78,140.01 82.5,0 138.79,-56.21 142.54,-140.01 M 2243.2,2600 c 0,228.86 -128.78,372.61 -335.11,372.61 -203.78,0 -341.36,-143.75 -341.36,-356.33 0,-222.61 135.05,-365.13 347.62,-365.13 168.83,0 285.08,80.05 327.63,227.55 h -198.83 c -20.01,-53.77 -62.58,-81.28 -125.05,-81.28 -95.03,0 -153.75,57.53 -158.8,157.58 h 482.68 c 1.22,20.03 1.22,37.52 1.22,45" /><path
         id="path40"
         style="fill:#ffffff;fill-opacity:1;fill-rule:nonzero;stroke:none"
         d="m 2245,1180.46 h 187.52 v 940.33 H 2245 v -443.66 -496.67" /><path
         id="path42"
         style="fill:#ffffff;fill-opacity:1;fill-rule:nonzero;stroke:none"
         d="m 2949.44,1490.6 c 0,-122.52 -54.99,-192.57 -151.32,-192.57 -59.96,0 -102.51,33.75 -102.51,79.96 0,52.57 46.3,78.84 163.77,97.55 l 65.09,10.01 c 2.43,1.3 11.23,2.51 24.97,5.05 m 176.29,-12.53 c 1.22,50.03 1.22,80.05 1.22,95.03 0,126.24 -14.96,180.02 -66.2,230.07 -50.05,51.24 -128.8,78.75 -227.56,78.75 -182.58,0 -297.61,-87.55 -306.39,-233.82 h 192.57 c 3.73,67.52 42.55,101.29 117.55,101.29 77.53,0 111.3,-41.25 112.52,-137.5 -82.5,-5.04 -193.78,-21.32 -255.04,-37.58 -130.1,-31.23 -193.89,-98.77 -193.89,-202.5 0,-121.3 101.29,-206.31 247.67,-206.31 109.98,0 178.72,36.2 228.77,120 v -27.51 c 0,-26.27 1.21,-40.03 6.26,-77.53 h 161.33 c -13.76,57.53 -18.81,125.05 -18.81,233.82 v 63.79" /><path
         id="path44"
         style="fill:#ffffff;fill-opacity:1;fill-rule:nonzero;stroke:none"
         d="M 3397.92,1861.93 H 3219.09 V 1180.5 h 187.62 v 352.58 c 0,136.28 39.94,200.07 126.27,200.07 40.01,0 73.78,-18.81 92.49,-48.73 12.53,-22.54 16.28,-45.08 16.28,-103.82 v -400.1 h 187.52 v 386.35 c 0,121.3 -7.48,165.08 -34.99,208.85 -41.25,65.01 -111.3,101.19 -197.53,101.19 -83.8,0 -155.07,-36.18 -198.83,-99.98 v 85.02" /><path
         id="path46"
         style="fill:#ffffff;fill-opacity:1;fill-rule:nonzero;stroke:none"
         d="m 4414.19,1180.47 h 197.54 v 775.24 h 303.85 V 2120.8 H 4109.1 v -165.09 h 305.09 v -775.24" /><path
         id="path48"
         style="fill:#ffffff;fill-opacity:1;fill-rule:nonzero;stroke:none"
         d="m 5198.27,1180.47 h 178.82 v 681.43 h -187.62 v -352.58 c 0,-73.81 -6.16,-111.31 -24.97,-141.33 -22.52,-37.5 -60.05,-58.72 -101.3,-58.72 -40.01,0 -73.78,17.47 -92.49,48.73 -12.53,22.52 -16.28,45.06 -16.28,103.8 v 400.1 h -187.52 v -386.35 c 0,-121.3 7.5,-165.06 34.99,-208.85 41.25,-65.01 112.52,-101.19 197.53,-101.19 82.59,0 153.86,36.18 198.84,99.98 v -85.02" /><path
         id="path50"
         style="fill:#ffffff;fill-opacity:1;fill-rule:nonzero;stroke:none"
         d="m 5471.97,1180.47 h 187.52 v 301.34 c 0,167.52 50.05,232.6 177.61,232.6 20.01,0 32.46,-1.29 52.46,-6.26 v 162.55 c -17.49,6.26 -28.7,7.48 -49.94,7.48 -85.1,0 -152.62,-37.5 -188.82,-105.02 v 88.74 h -178.83 v -681.43" /><path
         id="path52"
         style="fill:#ffffff;fill-opacity:1;fill-rule:nonzero;stroke:none"
         d="m 5967.8,1940.74 h 187.52 v 180.04 H 5967.8 v -90.02 z m 187.52,-78.83 H 5967.8 v -681.45 h 187.52 v 333.26 348.19" /><path
         id="path54"
         style="fill:#ffffff;fill-opacity:1;fill-rule:nonzero;stroke:none"
         d="M 6439.17,1861.93 H 6260.34 V 1180.5 h 187.63 v 352.58 c 0,136.28 39.93,200.07 126.26,200.07 40.01,0 73.79,-18.81 92.49,-48.73 12.53,-22.54 16.28,-45.08 16.28,-103.82 v -400.1 h 187.52 v 386.35 c 0,121.3 -7.48,165.08 -34.98,208.85 -41.25,65.01 -111.31,101.19 -197.54,101.19 -83.8,0 -155.07,-36.18 -198.83,-99.98 v 85.02" /><path
         id="path56"
         style="fill:#ffffff;fill-opacity:1;fill-rule:nonzero;stroke:none"
         d="m 7395.09,1535.57 c 0,-108.77 -54.99,-181.26 -136.28,-181.26 -81.26,0 -133.74,73.7 -133.74,187.52 0,111.3 54.99,187.52 135.06,187.52 82.48,0 134.96,-75 134.96,-193.78 m 181.34,-213.8 v 540.11 h -168.81 v -85.01 c -51.25,71.27 -108.77,101.29 -190.04,101.29 -167.51,0 -285.08,-140.01 -285.08,-337.55 0,-200.04 109.99,-332.67 275.07,-332.67 87.55,0 142.54,27.58 192.57,95.02 v -71.27 c 0,-123.73 -41.25,-177.5 -135.06,-177.5 -67.53,0 -113.72,33.77 -117.55,86.23 h -186.31 c 12.53,-137.5 125.05,-218.76 301.34,-218.76 163.85,0 265.14,66.219 300.12,197.53 12.53,48.81 13.75,67.52 13.75,202.58" /></g></g></svg>