<?xml version="1.0" encoding="UTF-8"?>
<svg width="136px" height="136px" viewBox="0 0 136 136" version="1.1" xmlns="http://www.w3.org/2000/svg" xmlns:xlink="http://www.w3.org/1999/xlink">
    <!-- Generator: Sketch 46.2 (44496) - http://www.bohemiancoding.com/sketch -->
    <title>Logo</title>
    <desc>Created with Sketch.</desc>
    <defs>
        <polygon id="path-1" points="0 0 35 0 35 34 0 34 0 4.6782357e-14"></polygon>
        <polygon id="path-3" points="35 0 35 35 0 35 0 0"></polygon>
    </defs>
    <g id="Page-1" stroke="none" stroke-width="1" fill="none" fill-rule="evenodd">
        <g id="2p-stroke-around-oxfo-and-0.5-around-text" transform="translate(-135.000000, 0.000000)">
            <g id="Navigation" transform="translate(135.000000, 0.000000)">
                <g id="Logo">
                    <rect id="Gradient" fill="#B70BAB" x="0" y="0" width="136" height="136"></rect>
                    <g id="Group" transform="translate(33.000000, 15.000000)">
                        <g id="Oxford-Foundry" transform="translate(3.000000, 83.000000)" stroke="#FFFFFF" stroke-width="0.5" fill="#FFFFFF">
                            <path d="M8.36363636,7.00175018 C8.804365,7.00175018 9.20174939,6.92129786 9.55616322,6.76094681 C9.91001656,6.6002267 10.2134262,6.38433402 10.4665789,6.11326877 C10.719358,5.84201899 10.9145939,5.52260854 11.0520997,5.15503742 C11.1892319,4.78746629 11.257798,4.39664518 11.257798,3.98275862 C11.257798,3.56887206 11.1892319,3.17786643 11.0520997,2.8102953 C10.9145939,2.44272418 10.719358,2.12349825 10.4665789,1.85206395 C10.2134262,1.5809987 9.91001656,1.36492149 9.55616322,1.20438591 C9.20174939,1.04366581 8.804365,0.963398015 8.36363636,0.963398015 C7.92290773,0.963398015 7.5253365,1.04366581 7.17129634,1.20438591 C6.81706934,1.36492149 6.51365972,1.5809987 6.26069381,1.85206395 C6.00772791,2.12349825 5.81249204,2.44272418 5.67517303,2.8102953 C5.53804085,3.17786643 5.46947476,3.56887206 5.46947476,3.98275862 C5.46947476,4.39664518 5.53804085,4.78746629 5.67517303,5.15503742 C5.81249204,5.52260854 6.00772791,5.84201899 6.26069381,6.11326877 C6.51365972,6.38433402 6.81706934,6.6002267 7.17129634,6.76094681 C7.5253365,6.92129786 7.92290773,7.00175018 8.36363636,7.00175018 M8.36363636,7.96551724 C7.77830241,7.96551724 7.23986243,7.86366018 6.74831642,7.66013059 C6.25695724,7.45697004 5.83603244,7.17686313 5.48572884,6.81980985 C5.13505159,6.4629411 4.86041357,6.04204264 4.66181478,5.55656089 C4.46284234,5.07107915 4.36363636,4.54647839 4.36363636,3.98275862 C4.36363636,3.41885432 4.46284234,2.89425357 4.66181478,2.40877182 C4.86041357,1.9234746 5.13505159,1.50239162 5.48572884,1.14552286 C5.83603244,0.788654112 6.25695724,0.5085472 6.74831642,0.305017606 C7.23986243,0.101488012 7.77830241,0 8.36363636,0 C8.94897032,0 9.4874103,0.101488012 9.97895631,0.305017606 C10.4701287,0.5085472 10.8910535,0.788654112 11.2415439,1.14552286 C11.5920343,1.50239162 11.8666723,1.9234746 12.0654579,2.40877182 C12.2642436,2.89425357 12.3636364,3.41885432 12.3636364,3.98275862 C12.3636364,4.54647839 12.2642436,5.07107915 12.0654579,5.55656089 C11.8666723,6.04204264 11.5920343,6.4629411 11.2415439,6.81980985 C10.8910535,7.17686313 10.4701287,7.45697004 9.97895631,7.66013059 C9.4874103,7.86366018 8.94897032,7.96551724 8.36363636,7.96551724" id="Fill-1"></path>
                            <polygon id="Fill-3" points="17.4120587 4.5043604 14.7573114 0.724137931 16.1293826 0.724137931 18.1818182 3.78438266 20.2117607 0.724137931 21.5503809 0.724137931 18.9179343 4.49291987 21.8181818 8.68965517 20.4126595 8.68965517 18.1483671 5.23558476 15.8727321 8.68965517 14.5454545 8.68965517"></polygon>
                            <polygon id="Fill-5" points="24.7272727 0.724137931 29.8181818 0.724137931 29.8181818 1.73672176 25.8253506 1.73672176 25.8253506 4.23444146 29.5437116 4.23444146 29.5437116 5.24702529 25.8253506 5.24702529 25.8253506 8.68965517 24.7272727 8.68965517"></polygon>
                            <path d="M36.7272727,7.00175018 C37.1680014,7.00175018 37.5653858,6.92129786 37.9197996,6.76094681 C38.2736529,6.6002267 38.5770625,6.38433402 38.8302153,6.11326877 C39.0829944,5.84201899 39.2782302,5.52260854 39.4157361,5.15503742 C39.5528682,4.78746629 39.6214343,4.39664518 39.6214343,3.98275862 C39.6214343,3.56887206 39.5528682,3.17786643 39.4157361,2.8102953 C39.2782302,2.44272418 39.0829944,2.12349825 38.8302153,1.85206395 C38.5770625,1.5809987 38.2736529,1.36492149 37.9197996,1.20438591 C37.5653858,1.04366581 37.1680014,0.963398015 36.7272727,0.963398015 C36.2865441,0.963398015 35.8889729,1.04366581 35.5349327,1.20438591 C35.1807057,1.36492149 34.8772961,1.5809987 34.6243302,1.85206395 C34.3713643,2.12349825 34.1761284,2.44272418 34.0388094,2.8102953 C33.9016772,3.17786643 33.8331111,3.56887206 33.8331111,3.98275862 C33.8331111,4.39664518 33.9016772,4.78746629 34.0388094,5.15503742 C34.1761284,5.52260854 34.3713643,5.84201899 34.6243302,6.11326877 C34.8772961,6.38433402 35.1807057,6.6002267 35.5349327,6.76094681 C35.8889729,6.92129786 36.2865441,7.00175018 36.7272727,7.00175018 M36.7272727,7.96551724 C36.1419388,7.96551724 35.6034988,7.86366018 35.1119528,7.66013059 C34.6205936,7.45697004 34.1996688,7.17686313 33.8493652,6.81980985 C33.498688,6.4629411 33.2240499,6.04204264 33.0254511,5.55656089 C32.8264787,5.07107915 32.7272727,4.54647839 32.7272727,3.98275862 C32.7272727,3.41885432 32.8264787,2.89425357 33.0254511,2.40877182 C33.2240499,1.9234746 33.498688,1.50239162 33.8493652,1.14552286 C34.1996688,0.788654112 34.6205936,0.5085472 35.1119528,0.305017606 C35.6034988,0.101488012 36.1419388,0 36.7272727,0 C37.3126067,0 37.8510467,0.101488012 38.3425927,0.305017606 C38.833765,0.5085472 39.2546898,0.788654112 39.6051802,1.14552286 C39.9556707,1.50239162 40.2303087,1.9234746 40.4290943,2.40877182 C40.6278799,2.89425357 40.7272727,3.41885432 40.7272727,3.98275862 C40.7272727,4.54647839 40.6278799,5.07107915 40.4290943,5.55656089 C40.2303087,6.04204264 39.9556707,6.4629411 39.6051802,6.81980985 C39.2546898,7.17686313 38.833765,7.45697004 38.3425927,7.66013059 C37.8510467,7.86366018 37.3126067,7.96551724 36.7272727,7.96551724" id="Fill-7"></path>
                            <path d="M44.6078299,4.23435601 L45.8831738,4.23435601 C46.0720943,4.23435601 46.2592703,4.21748649 46.4448764,4.18374744 C46.6304825,4.14981449 46.7956788,4.08815348 46.9408144,3.99798879 C47.0857755,3.908018 47.2023026,3.77868499 47.2900469,3.60998976 C47.3776166,3.44129453 47.421576,3.22179683 47.421576,2.95188446 C47.421576,2.6817782 47.3776166,2.4622805 47.2900469,2.29377917 C47.2023026,2.12489004 47.0857755,1.99555703 46.9408144,1.90558624 C46.7956788,1.81542155 46.6304825,1.75376053 46.4448764,1.72002149 C46.2592703,1.68608854 46.0720943,1.66921902 45.8831738,1.66921902 L44.6078299,1.66921902 L44.6078299,4.23435601 Z M43.6363636,0.724137931 L46.1565241,0.724137931 C46.615306,0.724137931 46.9931469,0.793748951 47.2900469,0.932389282 C47.5867723,1.07141742 47.8213965,1.24748095 47.9933961,1.46116157 C48.1655702,1.67503609 48.2852372,1.91508747 48.3527462,2.18112178 C48.4200807,2.4475439 48.4539224,2.70427089 48.4539224,2.95188446 C48.4539224,3.20686633 48.413452,3.45254088 48.3326854,3.6887142 C48.25157,3.92488752 48.1352173,4.13876205 47.983453,4.32994997 C47.8315142,4.5213318 47.6459081,4.68285263 47.4266348,4.81373686 C47.207187,4.9452028 46.9626196,5.02586627 46.6929326,5.05572726 L48.7272727,8.68965517 L47.5126346,8.68965517 L45.690939,5.17943709 L44.6078299,5.17943709 L44.6078299,8.68965517 L43.6363636,8.68965517 L43.6363636,0.724137931 Z" id="Fill-9"></path>
                            <path d="M53.3787605,7.67707135 L54.6583271,7.67707135 C55.0880691,7.67707135 55.4952122,7.61521492 55.8795742,7.49130817 C56.2635718,7.36759532 56.6001848,7.18183215 56.8894131,6.93460036 C57.1784592,6.68698076 57.4073633,6.37750474 57.5766722,6.0063662 C57.745981,5.63503376 57.8305443,5.20184489 57.8305443,4.70699351 C57.8305443,4.45200543 57.7917254,4.15377603 57.7140876,3.81230531 C57.6364497,3.4712224 57.4902864,3.14700942 57.2754154,2.83927856 C57.06018,2.53193552 56.7623859,2.27093632 56.3818511,2.0574444 C56.001134,1.84356467 55.5076051,1.73652785 54.9012643,1.73652785 L53.3787605,1.73652785 L53.3787605,7.67707135 Z M52.3636364,0.724137931 L54.9754395,0.724137931 C55.5041424,0.724137931 55.9676003,0.787933427 56.3659955,0.915330511 C56.7640262,1.0429215 57.1095693,1.21355991 57.4022604,1.42724574 C57.6947692,1.64112547 57.9378887,1.88680599 58.1318011,2.16409341 C58.3257135,2.44176864 58.4789845,2.72681234 58.5917963,3.01922452 C58.7046081,3.3116367 58.7857087,3.60424279 58.8349158,3.89684888 C58.8843051,4.18926106 58.9090909,4.45918 58.9090909,4.70699351 C58.9090909,5.21696966 58.8207004,5.71007588 58.6448306,6.18631216 C58.4684141,6.66274235 58.2074342,7.08642976 57.8622556,7.4575683 C57.5167124,7.82890075 57.0884285,8.12713015 56.5774037,8.35206259 C56.0661967,8.57718895 55.4758938,8.68965517 54.8063129,8.68965517 L52.3636364,8.68965517 L52.3636364,0.724137931 Z" id="Fill-11"></path>
                            <polygon id="Fill-13" points="0 13.0344828 5.09090909 13.0344828 5.09090909 14.0472358 1.09807788 14.0472358 1.09807788 16.5448947 4.81643892 16.5448947 4.81643892 17.55726 1.09807788 17.55726 1.09807788 21 0 21"></polygon>
                            <path d="M12,20.0363951 C12.4407286,20.0363951 12.838113,19.955941 13.1925269,19.7954017 C13.5463802,19.6348624 13.8497898,19.4189647 14.1029426,19.1477086 C14.3557216,18.8766371 14.5509575,18.5572192 14.6884633,18.1894551 C14.8255955,17.82206 14.8941616,17.4310453 14.8941616,17.0171491 C14.8941616,16.603253 14.8255955,16.2124228 14.6884633,15.8448432 C14.5509575,15.4772635 14.3557216,15.1580302 14.1029426,14.8865896 C13.8497898,14.6153336 13.5463802,14.3992513 13.1925269,14.2388966 C12.838113,14.0781727 12.4407286,13.9977186 12,13.9977186 C11.5592714,13.9977186 11.1617001,14.0781727 10.80766,14.2388966 C10.453433,14.3992513 10.1500234,14.6153336 9.89705745,14.8865896 C9.64409155,15.1580302 9.44885567,15.4772635 9.31153667,15.8448432 C9.17440448,16.2124228 9.10583839,16.603253 9.10583839,17.0171491 C9.10583839,17.4310453 9.17440448,17.82206 9.31153667,18.1894551 C9.44885567,18.5572192 9.64409155,18.8766371 9.89705745,19.1477086 C10.1500234,19.4189647 10.453433,19.6348624 10.80766,19.7954017 C11.1617001,19.955941 11.5592714,20.0363951 12,20.0363951 M12,21 C11.414666,21 10.8762261,20.8981406 10.3846801,20.6947908 C9.89332088,20.491441 9.47239608,20.2113276 9.12209248,19.8544506 C8.77141523,19.4975736 8.49677721,19.0764808 8.29817842,18.5909878 C8.09920598,18.1056794 8,17.5808819 8,17.0171491 C8,16.4532318 8.09920598,15.9288034 8.29817842,15.4433104 C8.49677721,14.9580019 8.77141523,14.5369092 9.12209248,14.1798476 C9.47239608,13.8229706 9.89332088,13.5430417 10.3846801,13.3393229 C10.8762261,13.1359731 11.414666,13.0344828 12,13.0344828 C12.585334,13.0344828 13.1237739,13.1359731 13.6153199,13.3393229 C14.1064923,13.5430417 14.5274171,13.8229706 14.8779075,14.1798476 C15.2283979,14.5369092 15.503036,14.9580019 15.7018216,15.4433104 C15.9006072,15.9288034 16,16.4532318 16,17.0171491 C16,17.5808819 15.9006072,18.1056794 15.7018216,18.5909878 C15.503036,19.0764808 15.2283979,19.4975736 14.8779075,19.8544506 C14.5274171,20.2113276 14.1064923,20.491441 13.6153199,20.6947908 C13.1237739,20.8981406 12.585334,21 12,21" id="Fill-15"></path>
                            <path d="M19.9283157,13.0344828 L19.9283157,17.7963206 C19.9283157,18.0377973 19.9601551,18.2881616 20.0238338,18.5477916 C20.0875124,18.8074216 20.1936436,19.0471965 20.3424101,19.2665488 C20.4909937,19.4859012 20.6856895,19.6651651 20.9263143,19.8041513 C21.1669392,19.9431375 21.4642894,20.0125361 21.8181818,20.0125361 C22.1720742,20.0125361 22.4692414,19.9431375 22.7098663,19.8041513 C22.9504912,19.6651651 23.1451869,19.4859012 23.2939535,19.2665488 C23.4425371,19.0471965 23.5486682,18.8074216 23.6123469,18.5477916 C23.6760256,18.2881616 23.7078649,18.0377973 23.7078649,17.7963206 L23.7078649,13.0344828 L24.7272727,13.0344828 L24.7272727,17.9610239 C24.7272727,18.4144783 24.652798,18.8259531 24.5042144,19.1952593 C24.3554478,19.5645655 24.150139,19.8847066 23.8884708,20.1551151 C23.6264367,20.4259019 23.3184735,20.6342866 22.964764,20.7804585 C22.6106886,20.9266304 22.2284335,21 21.8181818,21 C21.4075641,21 21.0253091,20.9266304 20.6715996,20.7804585 C20.3175242,20.6342866 20.009561,20.4259019 19.7478928,20.1551151 C19.4858587,19.8847066 19.2807329,19.5645655 19.1319663,19.1952593 C18.9833827,18.8259531 18.9090909,18.4144783 18.9090909,17.9610239 L18.9090909,13.0344828 L19.9283157,13.0344828 Z" id="Fill-17"></path>
                            <polygon id="Fill-19" points="29.0909091 13.0344828 30.4341742 13.0344828 34.5914794 19.5825723 34.6129761 19.5825723 34.6129761 13.0344828 35.6363636 13.0344828 35.6363636 21 34.3357244 21 30.1356096 14.4522983 30.1141129 14.4522983 30.1141129 21 29.0909091 21"></polygon>
                            <path d="M41.0151241,19.9872469 L42.2946907,19.9872469 C42.7244327,19.9872469 43.1315758,19.9255859 43.5159379,19.8016822 C43.8999355,19.6777784 44.2365484,19.4922137 44.5257768,19.244794 C44.8148229,18.9973743 45.043727,18.6879059 45.2130358,18.3167763 C45.3823447,17.945259 45.466908,17.5122746 45.466908,17.0172414 C45.466908,16.7622595 45.428089,16.4640374 45.3504512,16.1227689 C45.2728133,15.7816943 45.12665,15.4572953 44.9117791,15.1495719 C44.6965436,14.8422363 44.3987496,14.5814374 44.0182147,14.3677568 C43.6374976,14.1538822 43.1439687,14.0470419 42.537628,14.0470419 L41.0151241,14.0470419 L41.0151241,19.9872469 Z M40,13.0344828 L42.6118031,13.0344828 C43.140506,13.0344828 43.6039639,13.0984706 44.0023591,13.2256707 C44.4003898,13.3532586 44.7459329,13.5238928 45.038624,13.7377674 C45.3311329,13.951448 45.5742523,14.1971225 45.7681647,14.4745971 C45.9620771,14.7522656 46.1153481,15.0371084 46.2281599,15.3295135 C46.3409717,15.6221124 46.4220723,15.9145175 46.4712794,16.2073104 C46.5206688,16.4997154 46.5454545,16.7696278 46.5454545,17.0172414 C46.5454545,17.5272051 46.457064,18.0202993 46.2811942,18.4967179 C46.1047777,18.9731365 45.8437979,19.3966197 45.4986192,19.7679431 C45.1530761,20.1390726 44.7247921,20.4372948 44.2137674,20.6622217 C43.7025603,20.8875365 43.1122575,21 42.4426765,21 L40,21 L40,13.0344828 Z" id="Fill-21"></path>
                            <path d="M51.1532845,16.5448093 L52.4286284,16.5448093 C52.6175488,16.5448093 52.8047249,16.5277463 52.9903309,16.4940081 C53.175937,16.4602698 53.3411334,16.3986103 53.4862689,16.3084478 C53.6312301,16.2182853 53.7477572,16.0891494 53.8355014,15.9202643 C53.9230712,15.7515732 53.9670305,15.5320809 53.9670305,15.2621751 C53.9670305,14.9920754 53.9230712,14.7727769 53.8355014,14.6040858 C53.7477572,14.4353947 53.6312301,14.3058709 53.4862689,14.2159023 C53.3411334,14.1259337 53.175937,14.0640803 52.9903309,14.0303421 C52.8047249,13.99641 52.6175488,13.9797347 52.4286284,13.9797347 L51.1532845,13.9797347 L51.1532845,16.5448093 Z M50.1818182,13.0344828 L52.7019787,13.0344828 C53.1607606,13.0344828 53.5386015,13.104286 53.8355014,13.2429229 C54.1322269,13.3817538 54.3668511,13.5580069 54.5388507,13.7714885 C54.7110247,13.9853578 54.8306918,14.2255972 54.8982008,14.4914311 C54.9655353,14.7578468 54.999377,15.0147614 54.999377,15.2621751 C54.999377,15.5173446 54.9589065,15.7628193 54.87814,15.9991808 C54.7970245,16.2353483 54.6806719,16.4490238 54.5289075,16.640207 C54.3769687,16.8315842 54.1913626,16.9931011 53.9720893,17.124176 C53.7526415,17.2554449 53.5080742,17.3361064 53.2383872,17.3659666 L55.2727273,21 L54.0580891,21 L52.2363935,17.4896735 L51.1532845,17.4896735 L51.1532845,21 L50.1818182,21 L50.1818182,13.0344828 Z" id="Fill-23"></path>
                            <polygon id="Fill-25" points="60.2302366 17.6022454 57.4545455 13.0344828 58.7285074 13.0344828 60.727362 16.5334545 62.788335 13.0344828 64 13.0344828 61.2243089 17.6022454 61.2243089 21 60.2302366 21"></polygon>
                        </g>
                        <g id="OXFO">
                            <g id="Group-29">
                                <mask id="mask-2" fill="white">
                                    <use xlink:href="#path-1"></use>
                                </mask>
                                <g id="Clip-28"></g>
                                <path d="M17.5227854,2.10937552 C8.94979345,2.10937552 2.00001879,8.905981 2.00001879,17.2902127 C2.00001879,25.6742606 8.94979345,32.4708661 17.5227854,32.4708661 C26.0957773,32.4708661 33.045552,25.6742606 33.045552,17.2902127 C33.045552,8.905981 26.0957773,2.10937552 17.5227854,2.10937552 M17.5227854,4.65718392 C24.6455905,4.65718392 30.4403258,10.3243902 30.4403258,17.2902127 C30.4403258,24.2558514 24.6455905,29.9230577 17.5227854,29.9230577 C10.3999803,29.9230577 4.60524492,24.2558514 4.60524492,17.2902127 C4.60524492,10.3243902 10.3999803,4.65718392 17.5227854,4.65718392" id="Fill-27" stroke="#FFFFFF" stroke-width="2" fill="#FFFFFF" mask="url(#mask-2)"></path>
                            </g>
                            <g id="Group-32" transform="translate(34.813187, 35.582719)">
                                <mask id="mask-4" fill="white">
                                    <use xlink:href="#path-3"></use>
                                </mask>
                                <g id="Clip-31"></g>
                                <path d="M17.5766367,2.06055799 C9.05498004,2.06055799 2.14682079,8.85716347 2.14682079,17.2412114 C2.14682079,25.6254431 9.05498004,32.4218648 17.5766367,32.4218648 C26.0982933,32.4218648 33.0064526,25.6254431 33.0064526,17.2412114 C33.0064526,8.85716347 26.0982933,2.06055799 17.5766367,2.06055799 M17.5766367,4.60836639 C24.6566035,4.60836639 30.4168266,10.2755727 30.4168266,17.2412114 C30.4168266,24.2070338 24.6566035,29.8740564 17.5766367,29.8740564 C10.4964831,29.8740564 4.73644677,24.2070338 4.73644677,17.2412114 C4.73644677,10.2755727 10.4964831,4.60836639 17.5766367,4.60836639" id="Fill-30" stroke="#FFFFFF" stroke-width="2" fill="#FFFFFF" mask="url(#mask-4)"></path>
                            </g>
                            <path d="M29.7240468,38.3088966 L4.01221693,38.3088966 C3.30157785,38.3088966 2.72527473,38.8877899 2.72527473,39.6018076 L2.72527473,66.0631029 C2.72527473,66.7771205 3.30157785,67.3560138 4.01221693,67.3560138 C4.72303978,67.3560138 5.2993429,66.7771205 5.2993429,66.0631029 L5.2993429,53.4234396 L17.4366248,53.4234396 C18.1474476,53.4234396 18.7237507,52.8445463 18.7237507,52.1305286 C18.7237507,51.4165109 18.1474476,50.8376176 17.4366248,50.8376176 L5.2993429,50.8376176 L5.2993429,40.894534 L29.7240468,40.894534 C30.4346859,40.894534 31.010989,40.3156406 31.010989,39.6018076 C31.010989,38.8877899 30.4346859,38.3088966 29.7240468,38.3088966" id="Fill-33" stroke="#FFFFFF" stroke-width="2" fill="#FFFFFF"></path>
                            <path d="M53.863951,17.2496676 L66.1723533,4.92575321 C66.6751496,4.42269875 66.6751496,3.60684524 66.1723533,3.10360678 C65.6699245,2.60036832 64.8547182,2.60036832 64.3522895,3.10360678 L52.0438871,15.4275211 L39.7354848,3.10360678 C39.233056,2.60036832 38.4176659,2.60036832 37.9154209,3.10360678 C37.4128084,3.60684524 37.4128084,4.42269875 37.9154209,4.92575321 L50.2238233,17.2496676 L37.9154209,29.5735819 C37.4128084,30.0766364 37.4128084,30.8924899 37.9154209,31.3957284 C38.1666353,31.6474396 38.496136,31.7732952 38.8254529,31.7732952 C39.1547698,31.7732952 39.4842704,31.6474396 39.7354848,31.3957284 L52.0438871,19.071814 L64.3522895,31.3957284 C64.6035038,31.6474396 64.9330045,31.7732952 65.2623214,31.7732952 C65.5916383,31.7732952 65.9211389,31.6474396 66.1723533,31.3957284 C66.6751496,30.8924899 66.6751496,30.0766364 66.1723533,29.5735819 L53.863951,17.2496676 Z" id="Fill-35" stroke="#FFFFFF" stroke-width="2" fill="#FFFFFF"></path>
                        </g>
                    </g>
                </g>
            </g>
        </g>
    </g>
</svg>